<svg id="Layer_1" data-name="Layer 1" xmlns="http://www.w3.org/2000/svg" viewBox="0 0 623.74 736.94"><title>library</title><path d="M333.77,763q-122.83,0-245.67,0c-42,0-64.46-22.58-64.47-64.65q-.07-190.9,0-381.79c0-40.77,22.86-63.87,63.68-63.91q248.18-.19,496.33,0c40.79,0,63.61,23.17,63.63,64q.11,191.71,0,383.44c0,39.85-23,62.88-62.84,62.93Q459.1,763.09,333.77,763Zm1.68-314.67c33.18-7.24,64.37-14.62,95.81-20.65,13.43-2.57,18.58-8.32,17.64-22.22-1.2-17.61-.62-35.38-.19-53.07.28-12-4.48-15.87-16.21-13.25-37.19,8.31-74.37,16.68-111.77,24-11.11,2.16-14,6.82-13.91,17.55.51,49.22-.17,98.46.44,147.67.19,14.92-6.1,22.61-19.95,25.74-11.84,2.67-23.77,5.16-35.36,8.71-34.13,10.45-48.12,33.58-42.87,69.83,4,27.34,25.89,44.1,58.78,44.91,36.94.92,57.79-15.65,64.79-52.41a174,174,0,0,0,2.68-31.28C335.6,545.72,335.45,497.66,335.45,448.29Z" transform="translate(-23.59 -26.05)"/><path d="M335.38,195.89q-125.19,0-250.39-.06c-19.91,0-31.19-9.28-32.38-25.62-1.13-15.43,8.63-27.93,24.27-30.46,4.86-.79,9.92-.47,14.89-.47q243.75,0,487.52,0c6,0,12.36-.26,18.05,1.37,14.56,4.17,21.89,14.3,20.9,29.67-.9,14.08-11.07,24.52-25.85,25.2-16.54.77-33.15.33-49.73.33Q439,195.91,335.38,195.89Z" transform="translate(-23.59 -26.05)"/><path d="M334.85,82.67q-109.43,0-218.85,0c-22.24,0-35.54-10.56-35.68-27.95S93.8,26.1,115.55,26.09q220.5-.09,441,0c18.81,0,30.75,8.18,33.34,23.25,2.46,14.3-3.69,25.16-16.77,30.77-5.78,2.48-12.92,2.44-19.44,2.45Q444.28,82.81,334.85,82.67Z" transform="translate(-23.59 -26.05)"/></svg>