<?xml version="1.0" encoding="utf-8"?>
<!-- Generator: Adobe Illustrator 23.0.3, SVG Export Plug-In . SVG Version: 6.00 Build 0)  -->
<svg version="1.1" xmlns="http://www.w3.org/2000/svg" xmlns:xlink="http://www.w3.org/1999/xlink" x="0px" y="0px"
	 viewBox="0 0 595.28 841.89" style="enable-background:new 0 0 595.28 841.89;" xml:space="preserve">
<style type="text/css">
	.st0{display:none;}
	.st1{display:inline;fill:#3D3D3D;}
	.st2{display:none;stroke:#000000;stroke-miterlimit:10;}
	.st3{fill:#F3BF13;}
	.st4{fill:#FFFFFF;}
	.st5{fill:#ED1C24;}
</style>
<g id="Layer_3" class="st0">
	<rect x="192.18" y="178.03" class="st1" width="266.82" height="250.82"/>
</g>
<g id="Layer_1">
	<path class="st2" d="M431.24,214.47l45.18,46.12c0,0-33.88,39.06-38.59,49.88c-4.71,10.82-23.06,33.88-29.18,46.12
		s-13.18,26.35-22.12,39.06c-8.94,12.71-56.47,55.53-56.47,55.53s-12.71,6.59-21.18-2.82s-3.76-19.29-2.82-21.18
		c0.94-1.88,26.35-32.47,26.35-32.47s7.06-6.12,2.35-26.82s-28.14-14.12-37.13-11.29c-8.99,2.82-12.29,3.29-19.81,12.24
		c-7.53,8.94-5.18,13.18-5.18,13.18h-39.06v-22.59L269.35,318c0,0,5.18-8,13.65-12.71c8.47-4.71,18.82-8.47,24.94-10.35
		c6.12-1.88,41.41-17.88,47.06-22.59c5.65-4.71,31.53-16.94,40.47-24C404.41,241.29,431.24,214.47,431.24,214.47z"/>
	<g>
		<path class="st3" d="M273.94,336.22c-7.03,0-13.28,0.02-19.54-0.01c-4.23-0.02-7.15,1.7-9.13,5.62
			c-4.39,8.68-9.1,17.19-13.61,25.8c-3.01,5.75-5.91,11.56-9.17,17.96h152.64l-21.86-43.19c-3.25-7.03-5.5-6.26-10.24-6.21
			c-5.69,0.06-11.38,0.02-17.86,0.02 M323.75,322.33 M327.49,349.09c5.47-0.31,8.74,1.98,8.73,5.99c-0.01,3.14-3.01,5.27-7.46,5.27
			c-9.92,0-19.83,0-29.75,0c-10.05,0-20.1,0.01-30.15,0c-4.33-0.01-6.52-1.7-6.66-5.07c-0.15-3.51,2.66-6.16,6.74-6.2
			c6.16-0.06,12.36-0.36,18.48,0.15"/>
		<path class="st4" d="M272.01,270.56c-0.34,0.08-0.68-0.12-0.77-0.46c-1.89-7.12,1.2-13.34,5.5-18.06
			c4.71-5.18,9.06-10.69,13.69-15.96c1.01-1.15,2.43-2.06,3.82-2.76c10.77-5.43,21.58-10.81,32.39-16.16
			c12.35-6.11,23.74-13.61,33.8-23.06c0.89-0.84,1.92-1.76,2.82-2.61c1.26-1.18,1.69-1.48,2.97-2.65c1.12-1.03,1.73-0.9,2.89,0.25
			c6.6,6.49,13.05,13.14,19.4,19.88c0.49,0.52,0.14,2.49-0.47,3.29c-4.31,5.66-9.13,10.96-13.14,16.82
			c-6.43,9.39-13.05,18.76-18.34,28.79c-9.17,17.39-24.02,29.62-37.3,43.31c-2.98,3.07-8.13,2.9-11.17,0.06
			c-3.28-3.06-3.57-7.63-0.84-11.29c3.78-5.05,7.57-10.1,11.19-15.26c3.46-4.93,3.53-9.61-0.24-14.6c-2.94-3.88-6.93-4.9-11.96-3.71
			c-6.8,1.61-12.84,3.62-15.32,11.07c-0.28,0.84-1.09,2.84-2.26,3.15c-0.1,0.03-0.21,0.02-0.31-0.01c-2.42-0.64-5.34-1.19-7.77-1.19
			C277.14,269.41,274.24,270.03,272.01,270.56z"/>
		<path class="st4" d="M304.2,352.39"/>
	</g>
</g>
<g id="Layer_2">
	<path class="st5" d="M325.26,335.72c3.01-3.64,5.01-5.32,6.26-6.91c8.59-10.98,15.01-22.41,12.01-37c-0.28-1.35-1-2.61-1.52-3.91
		c-1.38,0.64-3.04,0.98-4.08,1.98c-5.1,4.88-9.99,9.99-15.04,14.92c-7.49,7.31-18.74,1.65-21.26-5.36
		c-2.34-6.52-0.03-11.57,3.87-16.46c1.52-1.9,2.88-3.93,4.29-5.92c0.33-0.47,0.27-1.11-0.15-1.51c-0.31-0.29-0.79-0.31-1.12-0.04
		c-2.22,1.79-4.75,3.36-6.34,5.6c-1.9,2.67-3.09,2.01-4.66,0.18c-4.9-5.71-10.92-8.45-18.59-8.24
		c-12.25,0.33-23.12,11.16-23.53,23.33c-0.36,10.4,3.12,19.36,8.98,27.57c2.81,3.95,6.02,7.61,9.51,11.99h-0.02
		c2.65,2.84,5.47,5.13,7.08,6.35c4.65,3.23,6.08,4.44,8.35,6.19c1.89,1.34,1.91,1.35,5.82,4.02c0.61,0.52-0.38-0.38,0.18,0.14
		c5.22,4.78,4.7,3.33,9.29-0.29c1-0.89,2.14-1.58,3.17-2.4c3.78-3.2,5.51-3.84,8.64-6.61"/>
</g>
</svg>
